<svg viewBox="0 0 86.04 63.72" fill="none" xmlns="http://www.w3.org/2000/svg">
<path d="M13.5 31L9 33L10 34L12.5 34.5L14.5 36L16 38L17.5 41.5L18 45.5V49.5L19 54L21 57.5L24 59L27.5 59.5H66H69L72 58L75 55.5L76 52.5L77 48V43V39L79.5 36L82 34L85.5 32L82 31L79.5 28.5L77 25L76 21V17V13L75 9L73 6.5L70.5 5H67H61H54.5H50H42H34H27.5L24 6.5L21 9L19 11.5L17.5 15V21V27L13.5 31Z" fill="var(--konflux-primary-color, #FF9D76)"/>
<path d="M8.205 36.84C6.71167 35.24 4.95167 34.28 2.925 33.96V29.8C4.95167 29.48 6.71167 28.5467 8.205 27C9.69833 25.4 10.445 23.56 10.445 21.48V15.48C10.445 11.5867 11.5117 8.49333 13.645 6.2C15.8317 3.90667 18.525 2.54667 21.725 2.12L22.845 6.52C20.925 6.94667 19.405 7.50667 18.285 8.2C17.2183 8.89333 16.3917 9.96 15.805 11.4C15.2183 12.7867 14.925 14.76 14.925 17.32V22.2C14.925 24.44 14.3917 26.36 13.325 27.96C12.3117 29.56 11.0583 30.8667 9.565 31.88C13.1383 34.44 14.925 37.6667 14.925 41.56V46.52C14.925 49.0267 15.2183 51 15.805 52.44C16.3917 53.88 17.2183 54.9467 18.285 55.64C19.405 56.3333 20.925 56.8933 22.845 57.32L21.725 61.64C18.525 61.2133 15.8317 59.8533 13.645 57.56C11.5117 55.32 10.445 52.2267 10.445 48.28V42.28C10.445 40.2 9.69833 38.3867 8.205 36.84Z" fill="var(--konflux-icon-color, #1A1A1A)"/>
<path d="M76.795 25.16C78.2883 26.76 80.0483 27.72 82.075 28.04L82.075 32.2C80.0483 32.52 78.2883 33.4533 76.795 35C75.3017 36.6 74.555 38.44 74.555 40.52L74.555 46.52C74.555 50.4133 73.4883 53.5067 71.355 55.8C69.1683 58.0933 66.475 59.4533 63.275 59.88L62.155 55.48C64.075 55.0533 65.595 54.4933 66.715 53.8C67.7817 53.1067 68.6083 52.04 69.195 50.6C69.7817 49.2133 70.075 47.24 70.075 44.68L70.075 39.8C70.075 37.56 70.6083 35.64 71.675 34.04C72.6883 32.44 73.9417 31.1333 75.435 30.12C71.8617 27.56 70.075 24.3333 70.075 20.44L70.075 15.48C70.075 12.9733 69.7817 11 69.195 9.56C68.6083 8.12 67.7817 7.05333 66.715 6.36C65.595 5.66667 64.075 5.10667 62.155 4.68L63.275 0.359999C66.475 0.786665 69.1683 2.14667 71.355 4.44C73.4883 6.68 74.555 9.77333 74.555 13.72L74.555 19.72C74.555 21.8 75.3017 23.6133 76.795 25.16Z" fill="var(--konflux-icon-color, #1A1A1A)"/>
<circle cx="23" cy="32" r="4" stroke="var(--konflux-icon-color, #1A1A1A)" stroke-width="2"/>
<circle cx="36" cy="32" r="4" stroke="var(--konflux-icon-color, #1A1A1A)" stroke-width="2"/>
<circle cx="49" cy="32" r="4" stroke="var(--konflux-icon-color, #1A1A1A)" stroke-width="2"/>
<circle cx="62" cy="32" r="4" stroke="var(--konflux-icon-color, #1A1A1A)" stroke-width="2"/>
</svg>
