<?xml version="1.0" encoding="UTF-8"?>
<svg id="uuid-c38ad228-aebd-4575-b4fc-81e4f3ba501c" data-name="Gray-20" xmlns="http://www.w3.org/2000/svg" xmlns:xlink="http://www.w3.org/1999/xlink" viewBox="0 0 1080 1080">
  <defs>
    <style>
      .uuid-59817d12-4940-47af-91bc-b93963a953f8, .uuid-86e1b86f-ff3a-4b3f-82ab-ee6142bb6759, .uuid-0633506d-646d-4314-95ac-2ba53c34dbf4, .uuid-5853b1e1-b0c0-4327-b647-b9c9fa1b8c37, .uuid-e7952c3f-b297-46e4-8da7-69e215614657, .uuid-dc1f2363-2911-41bc-b4d1-3fa340d8d61a, .uuid-e599850e-a9b4-4a7e-b50a-11f76a77a9a0, .uuid-62222800-c900-4eb4-a4e1-d3747d588b49, .uuid-a812352d-e6d8-4600-a085-b26c983889be, .uuid-b741a0a5-19db-49eb-943a-dbc92f7e788e, .uuid-da33f9b3-5cc8-4816-b8f9-6de68d7982f5, .uuid-565d272a-a60b-424b-b79f-7052bc4ccc25, .uuid-9fa3e669-aac3-4db3-89f6-b5a28064f457, .uuid-da6e5a55-bebf-4642-9713-a06075b2facf {
        fill: none;
      }

      .uuid-59817d12-4940-47af-91bc-b93963a953f8, .uuid-0633506d-646d-4314-95ac-2ba53c34dbf4, .uuid-a812352d-e6d8-4600-a085-b26c983889be, .uuid-b741a0a5-19db-49eb-943a-dbc92f7e788e, .uuid-da33f9b3-5cc8-4816-b8f9-6de68d7982f5, .uuid-565d272a-a60b-424b-b79f-7052bc4ccc25, .uuid-9fa3e669-aac3-4db3-89f6-b5a28064f457, .uuid-da6e5a55-bebf-4642-9713-a06075b2facf, .uuid-e3a643b5-52c1-414a-8579-b14d2be2b521 {
        stroke-miterlimit: 10;
      }

      .uuid-59817d12-4940-47af-91bc-b93963a953f8, .uuid-a812352d-e6d8-4600-a085-b26c983889be, .uuid-565d272a-a60b-424b-b79f-7052bc4ccc25, .uuid-e3a643b5-52c1-414a-8579-b14d2be2b521 {
        stroke: #e0e0e0;
      }

      .uuid-59817d12-4940-47af-91bc-b93963a953f8, .uuid-e3a643b5-52c1-414a-8579-b14d2be2b521 {
        stroke-width: 3px;
      }

      .uuid-86e1b86f-ff3a-4b3f-82ab-ee6142bb6759, .uuid-de2cb2a1-3ee5-4fe9-a69a-9f10ddfdd19b, .uuid-547286e6-6e9a-437f-b91c-ff001c07e424, .uuid-b2593829-690f-4b1c-b64d-8d41d43ef54b, .uuid-97213056-047d-4887-80f2-974acf6af3dd, .uuid-8e6a5499-e250-40bd-bed2-e36824670b1e, .uuid-e26786f4-99b1-4684-ad60-b539060d8386, .uuid-9012e708-7f90-4c08-8a07-0c8185ada578, .uuid-812a4371-e412-481d-961a-957d9dc78827, .uuid-2609634f-5d9a-45dc-8216-82ebb80140cb, .uuid-56a2412b-eee9-4d31-bc63-66d6094d0731, .uuid-74f49bc5-a551-4056-8c5c-a796de1c906d, .uuid-46260afe-f886-4373-aac9-3ba46b49cd7e, .uuid-7482d416-3421-4ece-8597-c64025b3b9bc, .uuid-7655311e-0b91-4e98-8460-9b4fb6767831 {
        stroke-width: 0px;
      }

      .uuid-6aabbef7-d400-454e-8f9f-838504678f6b, .uuid-2609634f-5d9a-45dc-8216-82ebb80140cb {
        fill: #c7c7c7;
      }

      .uuid-cf2e407d-9cf4-4e24-b4b9-760523aee3ff, .uuid-8e6a5499-e250-40bd-bed2-e36824670b1e {
        fill: #724335;
      }

      .uuid-b50a3820-f410-4e3d-a95f-b6c5d40a4f63 {
        clip-path: url(#uuid-27e1e444-99b4-4ca3-8212-20a0291a5845);
      }

      .uuid-0633506d-646d-4314-95ac-2ba53c34dbf4, .uuid-5853b1e1-b0c0-4327-b647-b9c9fa1b8c37, .uuid-e7952c3f-b297-46e4-8da7-69e215614657, .uuid-dc1f2363-2911-41bc-b4d1-3fa340d8d61a, .uuid-e599850e-a9b4-4a7e-b50a-11f76a77a9a0, .uuid-62222800-c900-4eb4-a4e1-d3747d588b49, .uuid-b741a0a5-19db-49eb-943a-dbc92f7e788e, .uuid-da33f9b3-5cc8-4816-b8f9-6de68d7982f5 {
        stroke-linecap: round;
      }

      .uuid-0633506d-646d-4314-95ac-2ba53c34dbf4, .uuid-e599850e-a9b4-4a7e-b50a-11f76a77a9a0, .uuid-b741a0a5-19db-49eb-943a-dbc92f7e788e, .uuid-9fa3e669-aac3-4db3-89f6-b5a28064f457, .uuid-da6e5a55-bebf-4642-9713-a06075b2facf {
        stroke: #e00;
      }

      .uuid-0633506d-646d-4314-95ac-2ba53c34dbf4, .uuid-da6e5a55-bebf-4642-9713-a06075b2facf {
        stroke-width: 2.18px;
      }

      .uuid-5853b1e1-b0c0-4327-b647-b9c9fa1b8c37 {
        stroke: #000;
      }

      .uuid-5853b1e1-b0c0-4327-b647-b9c9fa1b8c37, .uuid-e7952c3f-b297-46e4-8da7-69e215614657, .uuid-dc1f2363-2911-41bc-b4d1-3fa340d8d61a, .uuid-e599850e-a9b4-4a7e-b50a-11f76a77a9a0, .uuid-62222800-c900-4eb4-a4e1-d3747d588b49 {
        stroke-linejoin: round;
      }

      .uuid-5853b1e1-b0c0-4327-b647-b9c9fa1b8c37, .uuid-e7952c3f-b297-46e4-8da7-69e215614657, .uuid-dc1f2363-2911-41bc-b4d1-3fa340d8d61a, .uuid-62222800-c900-4eb4-a4e1-d3747d588b49, .uuid-da33f9b3-5cc8-4816-b8f9-6de68d7982f5, .uuid-565d272a-a60b-424b-b79f-7052bc4ccc25, .uuid-9fa3e669-aac3-4db3-89f6-b5a28064f457 {
        stroke-width: 2px;
      }

      .uuid-e7952c3f-b297-46e4-8da7-69e215614657 {
        stroke: #e8a997;
      }

      .uuid-dc1f2363-2911-41bc-b4d1-3fa340d8d61a, .uuid-da33f9b3-5cc8-4816-b8f9-6de68d7982f5 {
        stroke: #40251d;
      }

      .uuid-e599850e-a9b4-4a7e-b50a-11f76a77a9a0 {
        stroke-width: 4px;
      }

      .uuid-476cd56e-5c98-4000-ac11-e8ddb1c63011 {
        clip-path: url(#uuid-3c1b669f-278c-42b0-ae27-430e283d01b7);
      }

      .uuid-62222800-c900-4eb4-a4e1-d3747d588b49 {
        stroke: #f2f2f2;
      }

      .uuid-a812352d-e6d8-4600-a085-b26c983889be {
        stroke-width: 2.65px;
      }

      .uuid-b741a0a5-19db-49eb-943a-dbc92f7e788e {
        stroke-width: 1.99px;
      }

      .uuid-79e08856-4424-423a-9c50-38f353db1c94 {
        clip-path: url(#uuid-dbcfc7d5-e28d-4b66-bb46-21eee92f4f0d);
      }

      .uuid-067516a1-5ffb-4c22-8c5a-be5968c1e635 {
        clip-path: url(#uuid-8479a440-a84d-43d0-bb29-6095d14fcf2b);
      }

      .uuid-5b28c6eb-bfaa-42c4-b748-898dd38325c2 {
        clip-path: url(#uuid-ce6e901d-59f3-46fc-8bd9-ac2bee022789);
      }

      .uuid-e3a643b5-52c1-414a-8579-b14d2be2b521, .uuid-46260afe-f886-4373-aac9-3ba46b49cd7e {
        fill: #fff;
      }

      .uuid-547286e6-6e9a-437f-b91c-ff001c07e424 {
        fill: #f56e6e;
      }

      .uuid-b2593829-690f-4b1c-b64d-8d41d43ef54b {
        fill: #f7c8bb;
      }

      .uuid-97213056-047d-4887-80f2-974acf6af3dd {
        fill: #4d4d4d;
      }

      .uuid-e26786f4-99b1-4684-ad60-b539060d8386 {
        fill: #707070;
      }

      .uuid-9012e708-7f90-4c08-8a07-0c8185ada578 {
        fill: #a3a3a3;
      }

      .uuid-812a4371-e412-481d-961a-957d9dc78827 {
        fill: #40251d;
      }

      .uuid-56a2412b-eee9-4d31-bc63-66d6094d0731 {
        fill: #e0e0e0;
      }

      .uuid-74f49bc5-a551-4056-8c5c-a796de1c906d {
        fill: #a60000;
      }

      .uuid-7482d416-3421-4ece-8597-c64025b3b9bc {
        fill: #e00;
      }

      .uuid-7655311e-0b91-4e98-8460-9b4fb6767831 {
        fill: #e8a997;
      }
    </style>
    <clipPath id="uuid-3c1b669f-278c-42b0-ae27-430e283d01b7">
      <rect class="uuid-86e1b86f-ff3a-4b3f-82ab-ee6142bb6759" x="261.37" y="79.77" width="224.41" height="252.47"/>
    </clipPath>
    <clipPath id="uuid-27e1e444-99b4-4ca3-8212-20a0291a5845">
      <path class="uuid-86e1b86f-ff3a-4b3f-82ab-ee6142bb6759" d="M409.4,151.03c.48,2.53.14,11.9-1.08,16.49-2.14,8.04-4.54,9.96-6.17,13.53s-.44,9.2,2.68,16.73c1.26,3.04-.47,4.59-3.6,4.23-3.13-.36-5.9-1.93-5.9-1.93,0,0-1.86,2.02-.89,3.83s-2.98,2.01-3.7,2.13c0,0-2.92-1.68-5.22-4.42-2.29-2.74-3.91-2.37-2.95,2.69s2.86,6.31,2.86,6.31c0,0,0,2.17-.96,3.37-.96,1.2-2.41-.72-4.21,2.29-1.81,3.01-3.13,5.42-6.26,5.3-3.13-.12-8.31-2.77-12.04-9.03,0,0-1.69-1.81-6.14,2.29-4.45,4.09-8.31,12.88-9.99,19.26,0,0-3.97,3.13-12.88-1.69-8.91-4.82-12.64-23.83-12.64-23.83,0,0,18.66-45.62,31.18-57.3,12.52-11.68,31.18-18.06,42.97-15.17,11.8,2.89,14.93,14.93,14.93,14.93Z"/>
    </clipPath>
    <clipPath id="uuid-ce6e901d-59f3-46fc-8bd9-ac2bee022789">
      <path class="uuid-86e1b86f-ff3a-4b3f-82ab-ee6142bb6759" d="M409.4,151.03c.48,2.53.14,11.9-1.08,16.49-2.14,8.04-4.54,9.96-6.17,13.53s-.44,9.2,2.68,16.73c1.26,3.04-.47,4.59-3.6,4.23-3.13-.36-5.9-1.93-5.9-1.93,0,0-1.86,2.02-.89,3.83s-2.98,2.01-3.7,2.13c0,0-2.92-1.68-5.22-4.42-2.29-2.74-3.91-2.37-2.95,2.69s2.86,6.31,2.86,6.31c0,0,0,2.17-.96,3.37-.96,1.2-2.41-.72-4.21,2.29-1.81,3.01-3.13,5.42-6.26,5.3-3.13-.12-8.31-2.77-12.04-9.03,0,0-1.69-1.81-6.14,2.29-4.45,4.09-8.31,12.88-9.99,19.26,0,0-3.97,3.13-12.88-1.69-8.91-4.82-12.64-23.83-12.64-23.83,0,0,18.66-45.62,31.18-57.3,12.52-11.68,31.18-18.06,42.97-15.17,11.8,2.89,14.93,14.93,14.93,14.93Z"/>
    </clipPath>
    <clipPath id="uuid-dbcfc7d5-e28d-4b66-bb46-21eee92f4f0d">
      <path class="uuid-86e1b86f-ff3a-4b3f-82ab-ee6142bb6759" d="M564.62,747.92l15.04,138.13h-238.99c1.06-14.1,4.19-43.55,1.47-55.05-4.67-19.7-8.22-51.91-10.69-80.65l-.08.02h-13.18l-56.55-9.05-21.61-6.89s5.37-27.58,13.02-51.03c7.67-23.45,24.22-68.66,46.59-88.73,22.38-20.08,59.09-24.19,80.17-28.02.77-.14,1.55-.34,2.34-.59,9.03-2.34,11.18-3.68,21.71-12,11.39-8.99,29.27-42.44,32.32-52.99,3.05-10.55,4.67-22.72,4.13-27.09-.17-1.49-.52-4.01-.9-6.71l12.72-4.56s37.1,83.44,34.95,89.56c-2.16,6.11-4.54,12.23-4.54,12.23-.69,1.79,5.84,8.84,10.5,12.58,2,1.61,3.79,2.76,4.37,3.14,5.66,3.69,11.95,6.5,18.47,8.27,27.58,7.42,69.01,19.4,71.92,59.11,2.15,29.26,16.96,83.44,16.96,83.44l-40.14,16.9Z"/>
    </clipPath>
    <clipPath id="uuid-8479a440-a84d-43d0-bb29-6095d14fcf2b">
      <path class="uuid-8e6a5499-e250-40bd-bed2-e36824670b1e" d="M522.66,824.54l-16.39,26.21s-1.84,1.52-3.53.15c-1.69-1.38-1.84-7.97-2.23-9.66-.39-1.69-1.75-3.06-1.75-3.06-2.6.76-20.08,16.86-25.13,19.76-5.05,2.92-9.66,4.14-14.1,2.6-4.44-1.52-11.95-3.82-18.08-3.82s-70.53.66-103.02-1.69c-43.97-3.19-71.99-15.05-75.83-17.04-3.83-1.99-4.75-4.14-5.21-14.56-.47-10.41-1.05-52.57,4.17-91.03,0-.03.01-.07.01-.1,7.82.48,17.24,1.51,27.28,3.1,16.59,2.61,30.93,6.09,39,9.2l-.08.49c-3.94,22.12-6.95,42.43-7.48,46.07,15.33,5.61,43.59,17.01,72.13,22.93,34.02,7.05,53.92,7.67,53.92,7.67,5.06,0,26.36-10.42,29.73-11.96,3.38-1.52,3.68-1.52,5.83-1.52s4.6,1.68,4.6,1.68c0,0,6.59-1.07,9.04-.61,2.46.46,4.98,3.07,4.98,3.07,0,0,4.99.46,7.44.91,2.45.46,14.71,11.18,14.71,11.18Z"/>
    </clipPath>
  </defs>
  <g>
    <rect class="uuid-2609634f-5d9a-45dc-8216-82ebb80140cb" x="898.37" y="540.46" width="76.58" height="20.54" transform="translate(1873.31 1101.46) rotate(180)"/>
    <rect class="uuid-6aabbef7-d400-454e-8f9f-838504678f6b" x="830.29" y="578.48" width="209.71" height="20.54"/>
  </g>
  <g>
    <path class="uuid-0633506d-646d-4314-95ac-2ba53c34dbf4" d="M804.16,812.93h18.29c4.37,0,7.92,3.55,7.92,7.92v25.63c0,4.37-3.55,7.92-7.92,7.92h-18.29v-41.46h0Z"/>
    <path class="uuid-56a2412b-eee9-4d31-bc63-66d6094d0731" d="M885.13,108.27c-6.21,0-11.9.7-17.04,1.96.02-.54.04-1.08.04-1.62,0-26.82-21.74-48.56-48.56-48.56-23.66,0-43.36,16.93-47.67,39.34-3.31-.87-6.78-1.34-10.36-1.34-22.43,0-40.62,18.18-40.62,40.61s18.18,40.61,40.62,40.61h125.63c19.61,0,35.5-15.9,35.5-35.5s-16.33-35.5-37.55-35.5Z"/>
    <path class="uuid-56a2412b-eee9-4d31-bc63-66d6094d0731" d="M93.48,173.44c-72.91,66.9-65,179.66-13.93,243.6,51.07,63.94,156.7,112.85,196.17,289.79,39.47,176.94,94.02,304.62,265.81,312.74,171.79,8.13,236.79-118.4,236.79-222.87,0-43.25,9.75-87.15,30.16-125.42,12.46-23.36,29.99-43.13,50.57-59.66,20.14-16.16,44.39-27.32,63.03-45.18,36.01-34.49,51.84-86.07,44.94-135.07-2.55-18.11-8.13-35.77-16.47-52.04-20.17-39.34-59.02-67.8-101.49-78.77-32.42-8.38-67.49-7.37-100.71-7.14-41.35.29-82.73,1.82-124.07.28-36.52-1.36-74.89-4.18-109.16-17.92-2.05-.82-4.08-1.68-6.09-2.6-89.38-40.63-156.7-105.63-229.83-127.68-73.13-22.05-142.77-11.49-185.72,27.92Z"/>
    <polygon class="uuid-7482d416-3421-4ece-8597-c64025b3b9bc" points="548.2 131.36 548.2 215.24 548.2 299.13 548.2 383.01 548.2 466.9 801.99 466.9 801.99 383.01 801.99 299.13 801.99 215.24 801.99 131.36 548.2 131.36"/>
    <polygon class="uuid-da6e5a55-bebf-4642-9713-a06075b2facf" points="548.2 131.36 548.2 215.24 548.2 299.13 548.2 383.01 548.2 466.9 801.99 466.9 801.99 383.01 801.99 299.13 801.99 215.24 801.99 131.36 548.2 131.36"/>
    <g>
      <g>
        <rect class="uuid-46260afe-f886-4373-aac9-3ba46b49cd7e" x="529.8" y="131.36" width="253.79" height="83.88"/>
        <g>
          <circle class="uuid-7482d416-3421-4ece-8597-c64025b3b9bc" cx="743.79" cy="160.43" r="5.76"/>
          <circle class="uuid-9012e708-7f90-4c08-8a07-0c8185ada578" cx="743.79" cy="186.18" r="5.76"/>
        </g>
        <rect class="uuid-7482d416-3421-4ece-8597-c64025b3b9bc" x="558.04" y="168.4" width="133.96" height="9.8"/>
      </g>
      <rect class="uuid-46260afe-f886-4373-aac9-3ba46b49cd7e" x="529.8" y="215.24" width="253.79" height="83.88"/>
      <g>
        <rect class="uuid-7482d416-3421-4ece-8597-c64025b3b9bc" x="746.38" y="237.28" width="9.8" height="39.8"/>
        <rect class="uuid-7482d416-3421-4ece-8597-c64025b3b9bc" x="722.62" y="237.28" width="9.8" height="39.8"/>
      </g>
      <g>
        <circle class="uuid-9012e708-7f90-4c08-8a07-0c8185ada578" cx="646.21" cy="257.19" r="5.76"/>
        <circle class="uuid-9012e708-7f90-4c08-8a07-0c8185ada578" cx="611.97" cy="257.19" r="5.76"/>
        <circle class="uuid-7482d416-3421-4ece-8597-c64025b3b9bc" cx="577.73" cy="257.19" r="5.76"/>
      </g>
    </g>
    <g>
      <g>
        <rect class="uuid-46260afe-f886-4373-aac9-3ba46b49cd7e" x="529.8" y="299.13" width="253.79" height="83.88"/>
        <g>
          <circle class="uuid-7482d416-3421-4ece-8597-c64025b3b9bc" cx="743.79" cy="328.2" r="5.76"/>
          <circle class="uuid-9012e708-7f90-4c08-8a07-0c8185ada578" cx="743.79" cy="353.94" r="5.76"/>
        </g>
        <rect class="uuid-7482d416-3421-4ece-8597-c64025b3b9bc" x="558.04" y="336.17" width="133.96" height="9.8"/>
      </g>
      <rect class="uuid-46260afe-f886-4373-aac9-3ba46b49cd7e" x="529.8" y="383.01" width="253.79" height="83.88"/>
      <g>
        <rect class="uuid-7482d416-3421-4ece-8597-c64025b3b9bc" x="746.38" y="405.05" width="9.8" height="39.8"/>
        <rect class="uuid-7482d416-3421-4ece-8597-c64025b3b9bc" x="722.62" y="405.05" width="9.8" height="39.8"/>
      </g>
      <g>
        <circle class="uuid-7482d416-3421-4ece-8597-c64025b3b9bc" cx="646.21" cy="424.95" r="5.76"/>
        <circle class="uuid-9012e708-7f90-4c08-8a07-0c8185ada578" cx="611.97" cy="424.95" r="5.76"/>
        <circle class="uuid-9012e708-7f90-4c08-8a07-0c8185ada578" cx="577.73" cy="424.95" r="5.76"/>
      </g>
    </g>
    <path class="uuid-74f49bc5-a551-4056-8c5c-a796de1c906d" d="M749.06,812.93h58.2v64.17c0,4.37-3.55,7.92-7.92,7.92h-42.37c-4.37,0-7.92-3.55-7.92-7.92v-64.17h0Z"/>
    <path class="uuid-7482d416-3421-4ece-8597-c64025b3b9bc" d="M778.16,812.93h29.1v64.17c0,4.37-3.55,7.92-7.92,7.92h-21.19v-72.09h0Z"/>
    <g>
      <rect class="uuid-9fa3e669-aac3-4db3-89f6-b5a28064f457" x="529.8" y="131.36" width="253.79" height="83.88"/>
      <rect class="uuid-9fa3e669-aac3-4db3-89f6-b5a28064f457" x="529.8" y="215.24" width="253.79" height="83.88"/>
      <rect class="uuid-9fa3e669-aac3-4db3-89f6-b5a28064f457" x="529.8" y="299.13" width="253.79" height="83.88"/>
      <rect class="uuid-9fa3e669-aac3-4db3-89f6-b5a28064f457" x="529.8" y="383.01" width="253.79" height="83.88"/>
    </g>
    <path class="uuid-e3a643b5-52c1-414a-8579-b14d2be2b521" d="M483.23,439.52c0,41.34-31.01,75.44-71.05,80.29-2.64.47-5.35.71-8.11.71H109.15c-35.62,0-64.49-28.87-64.49-64.48s28.87-64.48,64.49-64.48c11.63,0,22.54,3.09,31.97,8.49,5.71-52.95,53.26-104.08,123-104.08,43.91,0,87.6,27.65,102.94,66.49,10.92-2.49,22.74-3.83,35.28-3.83,44.67,0,80.88,36.22,80.88,80.89Z"/>
    <polyline class="uuid-da6e5a55-bebf-4642-9713-a06075b2facf" points="173.37 520.22 173.37 886.05 838.48 886.05"/>
    <line class="uuid-b741a0a5-19db-49eb-943a-dbc92f7e788e" x1="744.67" y1="812.93" x2="811.65" y2="812.93"/>
    <path class="uuid-a812352d-e6d8-4600-a085-b26c983889be" d="M483.23,439.52c0,41.34-31.01,75.44-71.05,80.29-2.64.47-5.35.71-8.11.71H109.15c-35.62,0-64.49-28.87-64.49-64.48s28.87-64.48,64.49-64.48c11.63,0,22.54,3.09,31.97,8.49,5.71-52.95,53.26-104.08,123-104.08,43.91,0,87.6,27.65,102.94,66.49,10.92-2.49,22.74-3.83,35.28-3.83,44.67,0,80.88,36.22,80.88,80.89Z"/>
    <g>
      <path class="uuid-59817d12-4940-47af-91bc-b93963a953f8" d="M174.69,365.05c4.83-7.89,10.84-15.21,17.85-21.59,13.43-12.23,36.76-26.8,71.59-26.8,8.92,0,17.86,1.43,26.44,4.06"/>
      <path class="uuid-59817d12-4940-47af-91bc-b93963a953f8" d="M160.73,411.26l.97-8.98c.77-7.13,2.5-14.24,5.1-21.13"/>
    </g>
    <g>
      <rect class="uuid-7482d416-3421-4ece-8597-c64025b3b9bc" x="652.11" y="540.46" width="219.25" height="20.54"/>
      <rect class="uuid-7482d416-3421-4ece-8597-c64025b3b9bc" x="708.55" y="578.48" width="94.74" height="20.54"/>
      <path class="uuid-7482d416-3421-4ece-8597-c64025b3b9bc" d="M830.29,599.02h46.38c10.35-6.82,21-13.25,30.93-20.54h-77.31v20.54Z"/>
      <path class="uuid-7482d416-3421-4ece-8597-c64025b3b9bc" d="M898.37,540.46v20.54h29.09c5.99-6.38,11.34-13.27,16.05-20.54h-45.14Z"/>
    </g>
    <g>
      <rect class="uuid-de2cb2a1-3ee5-4fe9-a69a-9f10ddfdd19b" x="271.57" y="89.97" width="224.41" height="252.47"/>
      <rect class="uuid-46260afe-f886-4373-aac9-3ba46b49cd7e" x="261.37" y="79.77" width="224.41" height="252.47"/>
      <g class="uuid-476cd56e-5c98-4000-ac11-e8ddb1c63011">
        <path class="uuid-7482d416-3421-4ece-8597-c64025b3b9bc" d="M250.89,233.35c4.4-1.12,21.68-4.71,31.65-1.9,9.97,2.81,12.65,7.5,14.91,15.34l1.86,62.29-62.82-1.27,14.4-74.46Z"/>
        <polygon class="uuid-de2cb2a1-3ee5-4fe9-a69a-9f10ddfdd19b" points="432.71 325.99 466.04 244.26 508.39 244.26 477.86 326.15 432.71 325.99"/>
      </g>
    </g>
    <path class="uuid-b2593829-690f-4b1c-b64d-8d41d43ef54b" d="M320.32,208.57c-2.72,5.05-8.11,9.65-12.87,12.51-4.76,2.86-7.77,5.08-7.77,5.08,0,0,9.04-.32,15.55,3.33,6.5,3.65,17.45,30.3,23.64,38.08,6.19,7.77,18.81,12.7,24.43,10.95,2.54-.79,3.12.29,3.12.29,0,0-8.38-10.68-14.57-21.94-6.19-11.26-7.75-16.26-6-22.77,1.75-6.5-15.39-25.07-15.39-25.07l-10.13-.45Z"/>
    <path class="uuid-565d272a-a60b-424b-b79f-7052bc4ccc25" d="M390.44,205.12s-2.25,1.62-2.72,2.23-5.51-3.97-6.21-8.16c-.7-4.2,4.02-3.1,4.02-3.1l4.91,9.04Z"/>
    <path class="uuid-b2593829-690f-4b1c-b64d-8d41d43ef54b" d="M409.4,151.03c.48,2.53.14,11.9-1.08,16.49-2.14,8.04-4.54,9.96-6.17,13.53s-.44,9.2,2.68,16.73c1.26,3.04-.47,4.59-3.6,4.23-3.13-.36-5.9-1.93-5.9-1.93,0,0-1.86,2.02-.89,3.83s-2.98,2.01-3.7,2.13c0,0-2.92-1.68-5.22-4.42-2.29-2.74-3.91-2.37-2.95,2.69s2.86,6.31,2.86,6.31c0,0,0,2.17-.96,3.37-.96,1.2-2.41-.72-4.21,2.29-1.81,3.01-3.13,5.42-6.26,5.3-3.13-.12-8.31-2.77-12.04-9.03,0,0-1.69-1.81-6.14,2.29-4.45,4.09-8.31,12.88-9.99,19.26,0,0-3.97,3.13-12.88-1.69-8.91-4.82-12.64-23.83-12.64-23.83,0,0,18.66-45.62,31.18-57.3,12.52-11.68,31.18-18.06,42.97-15.17,11.8,2.89,14.93,14.93,14.93,14.93Z"/>
    <path class="uuid-5853b1e1-b0c0-4327-b647-b9c9fa1b8c37" d="M388.99,176.78s-.23,1.66,1.65,1.5c1.88-.16,4.56-.36,5.6.33,1.1,1.06.32,2.19.32,2.19,0,0,.14,1.04,2.04,1.07"/>
    <path class="uuid-de2cb2a1-3ee5-4fe9-a69a-9f10ddfdd19b" d="M396.7,180.29s-1.4,1.93-3.41,2.44c0,0-1-1.18-1.27-1.52,0,0,1.33-2.2,2.5-2.54s1.89.23,2.1.49c.38.47.08,1.13.08,1.13Z"/>
    <path class="uuid-de2cb2a1-3ee5-4fe9-a69a-9f10ddfdd19b" d="M385.91,169.01s4.03-.74,6.96.03,5.69,2.91,6.75,4.06c1.06,1.15,2.28,1.86,2.28,1.86,0,0,1.9,0,2.69-1.4,0,0-5.07-5.47-9.5-6.34-4.43-.87-9.17,1.78-9.17,1.78Z"/>
    <path class="uuid-97213056-047d-4887-80f2-974acf6af3dd" d="M299.67,226.16s4.76-2.54,10.47-1.75c5.71.79,12.53,5.24,18.24,16.98,5.71,11.74,10.25,26.11,17.7,31.84,6,4.61,12.44,4.57,17.99,2.49,0,0,8.48,9.76,11.64,14.9s2.75,16.42-6.56,23.28c-3.01,2.22-5.08,16.5-5.24,17.29h-71.87s-6.98-37.44-6.19-56.32c.79-18.88-1.67-27.05-.24-32.13,1.43-5.08,9.38-13.14,14.04-16.58Z"/>
    <path class="uuid-de2cb2a1-3ee5-4fe9-a69a-9f10ddfdd19b" d="M318.87,268.04s-7.69,26-10.48,38.4c-2.79,12.39.62,26.96.62,26.96l11.46.31s-2.79-17.94-2.79-36.86c0-18.92,1.18-28.81,1.18-28.81Z"/>
    <path class="uuid-b2593829-690f-4b1c-b64d-8d41d43ef54b" d="M276.04,297.55s.16,21.89,4.92,35.22h30.62s-2.06-18.24.48-34.11c2.54-15.87-19.2-15.55-21.58-15.55s-13.96.32-14.44,14.44Z"/>
    <path class="uuid-97213056-047d-4887-80f2-974acf6af3dd" d="M284.92,243.61c1.91-4.42,8.09-11.58,10.79-12.85,2.7-1.27,9.84-2.7,17.13,6.35,7.3,9.04,7.3,22.21,6.03,30.94-1.27,8.73-5.71,22.05-6.82,30.62,0,0-.95-2.22-16.34-3.33-15.39-1.11-19.67,2.22-19.67,2.22,0,0,.16-12.85,1.43-25.86,1.27-13.01,3.97-19.99,7.46-28.08Z"/>
    <g>
      <path class="uuid-b2593829-690f-4b1c-b64d-8d41d43ef54b" d="M407.78,311.45c2.99,2.03,8.19,4.7,9.33,5.27,1.14.57,8.09,7.52,8.8,8.09s.28,1.35-1.21,1.49c-1.49.14-2.84-1.21-2.84-1.21l-8.59-5.32"/>
      <path class="uuid-b2593829-690f-4b1c-b64d-8d41d43ef54b" d="M423.2,326.7c-1.5.25-3.36-.7-4.31-1.39-.95-.69-4.56-3.04-4.56-3.04-.91-.52-4.62-2.72-4.85-2.85.17.21,2.34,2.47,3.22,3.56,1.24,1.53,3.12,4.54,3.12,4.54,0,0-1.4.54-2.34,0-.94-.54-4.16-3.28-5.74-4.39-1.58-1.1-6.46-2.01-6.46-2.01-1.83-.33-6.94.08-10.39.44-3.45.37-5.9-.4-7.97-1.34-1.61-.72-2.82-.88-5.35-.42-2.54.45-6.47,2.59-11.67,6.53l-8.8,5.81c-4.56.05-28.1,1.16-28.1,1.16,0,0,31.47-18.89,38.42-22.03,6.96-3.12,14.19-4.66,19.46-4.02,5.29.62,10.93,1.11,13.46,1.22,2.53.12,3.05-.07,5.53,1.42,1.09.65,4.92,4.68,8.87,6.84,2,1.09,5.58,5.92,7.38,7.03,1.49.92,1.94,2.8,1.06,2.95Z"/>
    </g>
    <polygon class="uuid-de2cb2a1-3ee5-4fe9-a69a-9f10ddfdd19b" points="427.41 325.99 472.91 325.99 472.91 331.7 350.46 331.7 350.46 326.15 427.41 325.99"/>
    <rect class="uuid-9fa3e669-aac3-4db3-89f6-b5a28064f457" x="261.37" y="79.77" width="224.41" height="252.47"/>
    <g class="uuid-b50a3820-f410-4e3d-a95f-b6c5d40a4f63">
      <path class="uuid-7655311e-0b91-4e98-8460-9b4fb6767831" d="M361.97,212.54c-5.05-10.92-4.34-20.46-4.34-20.46l-9.54,37.82"/>
    </g>
    <path class="uuid-de2cb2a1-3ee5-4fe9-a69a-9f10ddfdd19b" d="M390.26,128.04s-12.52-7.34-26.36-5.42c-13.84,1.93-22.87,8.55-28.29,18.54-5.42,9.99-6.62,23.59-7.94,28.41s-4.69,6.74-9.75,7.82c-5.06,1.08-11.92,3.37-13.24,9.51-1.32,6.14-3.52,16.72-7.13,17.2-3.61.48-9.39.6-12.16,5.66-2.77,5.06-1.93,15.17,3.97,17.7,5.9,2.53,12.64.72,16.01-1.93,0,0,10.83,7.34,24.68,4.45,13.84-2.89,18.9-18.18,19.62-25.04s1.96-29.84,7.74-36.22c5.78-6.38,12.4-4.82,12.4-4.82,0,0,1.08,1.93,4.21,1.69,3.13-.24,11.74-2.52,18.6-8.66,6.86-6.14,14.08-4.45,16.97-1.2,0,0,6.32.11,11.37-4.58s7.1-19.14-3.01-25.16c-10.11-6.02-18.78-.96-19.74,2.29-.96,3.25-.24,4.69-.24,4.69,0,0-4.38-3.29-7.7-4.94Z"/>
    <path class="uuid-b2593829-690f-4b1c-b64d-8d41d43ef54b" d="M369.8,163.91s-.6-3.97-4.57-5.42-7.58,3.13-8.07,8.31c-.48,5.18.24,11.44,3.61,12.76s4.69-.96,4.69-.96"/>
    <path class="uuid-e7952c3f-b297-46e4-8da7-69e215614657" d="M369.8,163.91s-.6-3.97-4.57-5.42-7.58,3.13-8.07,8.31c-.48,5.18.24,11.44,3.61,12.76s4.69-.96,4.69-.96"/>
    <g class="uuid-5b28c6eb-bfaa-42c4-b748-898dd38325c2">
      <path class="uuid-547286e6-6e9a-437f-b91c-ff001c07e424" d="M383.12,199.87c1.09-.31,2.64.68,3.85,1.46,1.54.99,3.1,1.95,4.61,2.99.88.61,2.29.92,3.32,1.22l-9.18,8.27-1,.18s-1.51-.99-2.36-4.81c-.86-3.82-1.31-8.43.76-9.32Z"/>
    </g>
    <path class="uuid-de2cb2a1-3ee5-4fe9-a69a-9f10ddfdd19b" d="M358.41,123.86c5.8-2.14,15.88-3.78,29.61,0s19.03,10.46,19.03,10.46l-5.92,6.55"/>
    <path class="uuid-7482d416-3421-4ece-8597-c64025b3b9bc" d="M564.62,747.92l15.04,138.13h-238.99c1.06-14.1,4.19-43.55,1.47-55.05-4.67-19.7-8.22-51.91-10.69-80.65l-.08.02h-13.18l-56.55-9.05-21.61-6.89s5.37-27.58,13.02-51.03c7.67-23.45,24.22-68.66,46.59-88.73,22.38-20.08,59.09-24.19,80.17-28.02.77-.14,1.55-.34,2.34-.59,9.03-2.34,11.18-3.68,21.71-12,11.39-8.99,29.27-42.44,32.32-52.99,3.05-10.55,4.67-22.72,4.13-27.09-.17-1.49-.52-4.01-.9-6.71l12.72-4.56s37.1,83.44,34.95,89.56c-2.16,6.11-4.54,12.23-4.54,12.23-.69,1.79,5.84,8.84,10.5,12.58,2,1.61,3.79,2.76,4.37,3.14,5.66,3.69,11.95,6.5,18.47,8.27,27.58,7.42,69.01,19.4,71.92,59.11,2.15,29.26,16.96,83.44,16.96,83.44l-40.14,16.9Z"/>
    <g class="uuid-79e08856-4424-423a-9c50-38f353db1c94">
      <path class="uuid-de2cb2a1-3ee5-4fe9-a69a-9f10ddfdd19b" d="M395.36,567.31c-18.96,3.56-74.84,10.62-93.3,37.45-18.46,26.82-37.49,98.06-41.82,130.94-4.33,32.88-33.75.58-33.75.58l37.78-137,60.57-44.42,39.23-4.9,25.98,5.51,5.31,11.84Z"/>
      <path class="uuid-de2cb2a1-3ee5-4fe9-a69a-9f10ddfdd19b" d="M356.5,664.46s-10.53,27.95-4.09,73.19c4.34,30.46,17.64,89.67,7.68,154.92-10.7,70.09-28.94,4.53-28.94,3.3s-2.45-145.96-2.45-145.96l6.1-.52s10.26-59.99,13.94-70.21,7.77-14.72,7.77-14.72Z"/>
    </g>
    <path class="uuid-8e6a5499-e250-40bd-bed2-e36824670b1e" d="M493.04,577.07c-2.17,7.92-3.68,21.7-33.83,18.47-27.04-2.91-60.95-25.19-68.89-32.15,3.72-1.7,7.03-4.18,13.56-9.33,11.39-8.99,29.27-42.44,32.32-52.99,3.05-10.55,4.67-22.72,4.13-27.09-.17-1.49-.52-4.01-.9-6.71l12.72-4.56s37.1,83.44,34.95,89.55c-2.16,6.12-4.54,12.23-4.54,12.23,1.96,5,6.63,9.57,10.5,12.59Z"/>
    <path class="uuid-812a4371-e412-481d-961a-957d9dc78827" d="M449.27,463.73c-.02,3.88-.28,8.33-.89,13.29-4.89,39.86-20.81,61.4-30.7,74.02-7.13,9.09-15.68,13.59-22.32,16.28-2.17-1.56-3.89-2.91-5.04-3.92,3.72-1.7,7.03-4.18,13.56-9.33,11.39-8.99,29.27-42.44,32.32-52.99,3.05-10.55,4.67-22.72,4.13-27.09-.17-1.49-.52-4.01-.9-6.71l9.86-3.54Z"/>
    <path class="uuid-812a4371-e412-481d-961a-957d9dc78827" d="M493.04,577.07c2.07,11.68-7.12,16.34-17.57,18.34-6.38-11.18-17.37-47.45-19.16-56.35-2.11-10.41-.45-23.38-.45-23.38l8.15,4.98,22.29,26.35c.32,1.13.54,2.11.69,2.93.03.14.05.28.08.41.04.27.08.51.09.73.01.09.01.15.01.23.02.27.01.51-.02.7-.01.04-.01.09-.02.13-.01.04-.02.09-.03.12-2.16,6.12-4.54,12.23-4.54,12.23,2.32,4.91,6.63,9.57,10.5,12.58Z"/>
    <path class="uuid-de2cb2a1-3ee5-4fe9-a69a-9f10ddfdd19b" d="M551.53,653.69s-5.43,10.07-6.3,16.9c-.87,6.83-12.16,72.87-3.39,103.47l11.44-23.57s-7.56-45.04-5.08-75.83c.61-7.59,3.33-20.97,3.33-20.97Z"/>
    <path class="uuid-8e6a5499-e250-40bd-bed2-e36824670b1e" d="M566.45,442.68c2.12,10.84-4.61,30.18-5.63,34.53-2.04,8.63-7.75,9.54-10.07,11.87-2.32,2.32-2.71,10.75-6.66,22.14-3.95,11.39-7.95,10.66-22.59,28.09-14.64,17.43-22.03,23.97-26.91,22.57-4.88-1.39-14.87-6.51-23.71-16.27-8.83-9.76-13.94-20.45-16.97-35.79-3.02-15.34.46-41.37,8.37-61.82,7.9-20.45,40.67-52.29,64.61-42.76,23.94,9.53,39.57,37.44,39.57,37.44Z"/>
    <path class="uuid-812a4371-e412-481d-961a-957d9dc78827" d="M441.56,492.02s18.43-3.75,21.84-33.94l-17.06,12.79"/>
    <path class="uuid-de2cb2a1-3ee5-4fe9-a69a-9f10ddfdd19b" d="M462.26,456.23c3.36,4.32,7.97,1.55,9.83-2.4,1.86-3.95,9.11-17.23,14.92-20.49,5.81-3.25,11.45-.61,11.45-.61,2.27-6.48,8.38-19.11,15.71-15.94,6.97,3.02,42.25,31.89,52.6,28.36,0,0,2.23-4.75,2.19-6.79-.07-3.19-1.32-7.27-3.12-11.63-3-7.26-10.12-21.37-22.51-32.26-5.93-5.21-13.45-9.09-21.57-12.25-25.1-9.76-57.34-.22-70.65,17.43-22.36,29.65-11.16,59.03-11.16,59.03l22.31-2.47Z"/>
    <path class="uuid-de2cb2a1-3ee5-4fe9-a69a-9f10ddfdd19b" d="M558.34,479.05c-.9-2.05-4.75-4.75-9.13-4.47-4.38.27-7.3,1.28-7.58.82s2.01-4.38,7.12-4.84c5.11-.46,7.21.73,8.85,1.83,1.64,1.1,2.56,3.19,2.65,5.02.09,1.83-1.46,4.65-1.46,4.38s.55-.46-.46-2.74Z"/>
    <path class="uuid-de2cb2a1-3ee5-4fe9-a69a-9f10ddfdd19b" d="M527.09,466.29c.7-.84,1.22-2.31.19-4.92s-12.28-11.67-19.78-11.84c-7.5-.17-12.81,4.41-14.12,5.53-1.31,1.12-3.26,4.73-3.26,4.73,0,0,9.19-3.96,18.72-3.17,9.53.79,18.26,9.67,18.26,9.67Z"/>
    <ellipse class="uuid-de2cb2a1-3ee5-4fe9-a69a-9f10ddfdd19b" cx="510.44" cy="477.06" rx="6.61" ry="5.38" transform="translate(-104.66 808.4) rotate(-71.37)"/>
    <path class="uuid-8e6a5499-e250-40bd-bed2-e36824670b1e" d="M498.64,466.28s2.55.89,3.84,1.14c0,0,3.53,3.36,9.2,5.16,5.67,1.8,6.99,1.32,7.87,2.3.88.98,1.37,2.12,1.37,2.12l2.84-6.91-3.39-6.25-13.89-3.45"/>
    <ellipse class="uuid-de2cb2a1-3ee5-4fe9-a69a-9f10ddfdd19b" cx="545.21" cy="489.68" rx="5.65" ry="3.1" transform="translate(-117.74 801.99) rotate(-67.15)"/>
    <path class="uuid-8e6a5499-e250-40bd-bed2-e36824670b1e" d="M541.12,491.96s2.69,1.99,5.95,2.25c0,0-2.55,1.91-4.3.83-1.76-1.08-1.65-3.08-1.65-3.08Z"/>
    <path class="uuid-de2cb2a1-3ee5-4fe9-a69a-9f10ddfdd19b" d="M493.37,508.13s-2.85,5.57,0,14.22c1.79,5.42,8.95,12.39,16.74,13.32,3.32.4,5.98-1.18,9.94-6.85,1.83-2.62,3.84-2.95,3.84-2.95,0,0-9.32-1-19.43-6.74-10.11-5.74-11.1-11.01-11.1-11.01Z"/>
    <path class="uuid-46260afe-f886-4373-aac9-3ba46b49cd7e" d="M521.2,525.42c-.02.05-.05.11-.07.16-.48,1-2.12,4.1-2.78,4.91,0,0-2.08.52-5.5-.06-3.23-.54-7.7-2.13-10.61-4.23-6.48-4.68-9.52-9.74-10.11-10.78-.14-4.58,1.24-7.3,1.24-7.3,0,0,1,5.27,11.1,11.01,6.8,3.85,13.24,5.58,16.73,6.28Z"/>
    <path class="uuid-dc1f2363-2911-41bc-b4d1-3fa340d8d61a" d="M493.37,508.13s-2.85,5.57,0,14.22c1.79,5.42,8.95,12.39,16.74,13.32,3.32.4,5.98-1.18,9.94-6.85,1.83-2.62,3.84-2.95,3.84-2.95,0,0-9.32-1-19.43-6.74-10.11-5.74-11.1-11.01-11.1-11.01Z"/>
    <path class="uuid-812a4371-e412-481d-961a-957d9dc78827" d="M491.9,533.64s3.85,3.53,7.17,5.49c3.32,1.96,4.86,2.02,5.2,2.77s-4.48,3.6-8.94.78c-4.47-2.81-3.43-9.04-3.43-9.04Z"/>
    <rect class="uuid-e26786f4-99b1-4684-ad60-b539060d8386" x="494.03" y="875.38" width="194.23" height="10.2"/>
    <polygon class="uuid-de2cb2a1-3ee5-4fe9-a69a-9f10ddfdd19b" points="494.03 885.58 380.02 885.58 376.18 875.38 494.03 875.38 494.03 885.58"/>
    <path class="uuid-5853b1e1-b0c0-4327-b647-b9c9fa1b8c37" d="M498.86,468.19s2.55.89,3.84,1.14c0,0,4.05,1.62,9.72,3.43,5.67,1.8,6.25,1.14,7.13,2.12.88.98,1.37,2.12,1.37,2.12"/>
    <path class="uuid-8e6a5499-e250-40bd-bed2-e36824670b1e" d="M504.33,478.97s4.9,3.37,9.31,3.62c0,0-4.72,2.61-6.95,1.75-2.24-.86-2.36-5.37-2.36-5.37Z"/>
    <path class="uuid-8e6a5499-e250-40bd-bed2-e36824670b1e" d="M550.49,485.97s-.18.78-1.05.57c-4.11-1.02-6.13-3.53-7.24-3.53s-2.97.93-2.97.93l7.68-8.4,7.19,1.2-3.61,9.23Z"/>
    <path class="uuid-5853b1e1-b0c0-4327-b647-b9c9fa1b8c37" d="M539.23,483.94s1.55-.57,2.66-.57,2.46,1.78,5.85,2.88c1.86.6,1.86,2.63,1.86,2.63,0,0,.93.93,2.71.76"/>
    <path class="uuid-7482d416-3421-4ece-8597-c64025b3b9bc" d="M507.57,377.38c-14.23-1.09-21.23,1.01-30.45,4.72-2.04.82-5.14,2.51-6.87,3.9-1.67,1.34-2.83,6.43-2.83,6.43l12.16-2.88c3.19-.94,5.72-2.04,5.72-2.04,0,0,5.34-3.14,20.37-4.25,7.21-.53,17.12.92,24.93,3.98,7.29,2.86,12.74,7.25,12.74,7.25,0,0-.54-2.03-2.98-4.23-2.44-2.2-10.16-6.84-12.12-7.85-5.64-2.91-11.61-4.32-20.67-5.02Z"/>
    <ellipse class="uuid-97213056-047d-4887-80f2-974acf6af3dd" cx="446.67" cy="455.59" rx="27.88" ry="16.9" transform="translate(-86.97 805.31) rotate(-78.81)"/>
    <path class="uuid-de2cb2a1-3ee5-4fe9-a69a-9f10ddfdd19b" d="M449.43,456.44c-2.04,11.32-7.73,21.33-15.67,20.16-.29-.05-.57-.1-.85-.18,0,0-.01,0-.01-.01-3.33-5.6-4.6-14.13-2.96-23.3,1.94-10.84,7.47-19.65,13.84-23.26,0-.02-1.83,4.54-1.82,4.55,6.06,2.07,9.37,11.48,7.47,22.04Z"/>
    <path class="uuid-e599850e-a9b4-4a7e-b50a-11f76a77a9a0" d="M438.8,467.23s11.74,28.5,15.25,33.93c3.51,5.43,13.12,12.67,13.12,12.67"/>
    <path class="uuid-2609634f-5d9a-45dc-8216-82ebb80140cb" d="M444.35,439.83c2.04-11.14,11.68-29.24,22.32-40.54,3.98-4.22,9.97-8.71,14.04-11.57,1.18-.83.42-2.66-1-2.42-3.05.5-6.82,1.43-9.77,3.14,0,0-26.62,19.22-32.84,49.39l7.24,2Z"/>
    <ellipse class="uuid-7482d416-3421-4ece-8597-c64025b3b9bc" cx="436.48" cy="452.06" rx="19.86" ry="12.04" transform="translate(-91.73 792.47) rotate(-78.81)"/>
    <path class="uuid-da33f9b3-5cc8-4816-b8f9-6de68d7982f5" d="M513.23,513.49s3.61.24,4.93.84c1.32.6,5.17,3.49,7.45,3.97,2.28.48,4.09.24,5.17-1.44,1.08-1.68.6-6.97.12-10.7-.48-3.73-.41-17.34,1.96-22.5,2.37-5.15,4.77-6.11,4.77-6.11"/>
    <path class="uuid-da33f9b3-5cc8-4816-b8f9-6de68d7982f5" d="M507.86,509.24s-2.81-2.3-.51-5.87"/>
    <path class="uuid-da33f9b3-5cc8-4816-b8f9-6de68d7982f5" d="M529.11,526.35s-2.68.71-5.21-.48c0,0-9.32-1-19.43-6.74-10.11-5.74-11.1-11.01-11.1-11.01,0,0-3.01-2.24-3.22-4.61"/>
    <g>
      <path class="uuid-62222800-c900-4eb4-a4e1-d3747d588b49" d="M440.55,438.22c.47.4.91.88,1.3,1.44"/>
      <path class="uuid-62222800-c900-4eb4-a4e1-d3747d588b49" d="M426.66,457.91c-.26-2.19-.21-4.62.22-7.14,1.24-7.29,5.19-12.92,9.31-13.72"/>
    </g>
    <ellipse class="uuid-de2cb2a1-3ee5-4fe9-a69a-9f10ddfdd19b" cx="287.42" cy="741.91" rx="6.64" ry="47.97" transform="translate(-490.03 911.08) rotate(-81.1)"/>
    <path class="uuid-86e1b86f-ff3a-4b3f-82ab-ee6142bb6759" d="M327.23,689.3s1.39,28.27,4.21,61.05c2.47,28.74,6.03,60.96,10.69,80.66,3.23,13.67-1.8,55.05-1.8,55.05h239.31l-15.04-138.13,40.14-16.9s-13.62-40.13-16.97-83.43c-2.26-29.25-27.36-43.81-35.69-46.76-8.35-2.96-15.39-7.9-31.22-11.14-10.62-2.17-19.97-6.45-27.85-12.62"/>
    <g>
      <path class="uuid-cf2e407d-9cf4-4e24-b4b9-760523aee3ff" d="M522.66,824.54l-16.39,26.21s-1.84,1.52-3.53.15c-1.69-1.38-1.84-7.97-2.23-9.66-.39-1.69-1.75-3.06-1.75-3.06-2.6.76-20.08,16.86-25.13,19.76-5.05,2.92-9.66,4.14-14.1,2.6-4.44-1.52-11.95-3.82-18.08-3.82s-70.53.66-103.02-1.69c-43.97-3.19-71.99-15.05-75.83-17.04-3.83-1.99-4.75-4.14-5.21-14.56-.47-10.41-1.05-52.57,4.17-91.03,0-.03.01-.07.01-.1,7.82.48,17.24,1.51,27.28,3.1,16.59,2.61,30.93,6.09,39,9.2l-.08.49c-3.94,22.12-6.95,42.43-7.48,46.07,15.33,5.61,43.59,17.01,72.13,22.93,34.02,7.05,53.92,7.67,53.92,7.67,5.06,0,26.36-10.42,29.73-11.96,3.38-1.52,3.68-1.52,5.83-1.52s4.6,1.68,4.6,1.68c0,0,6.59-1.07,9.04-.61,2.46.46,4.98,3.07,4.98,3.07,0,0,4.99.46,7.44.91,2.45.46,14.71,11.18,14.71,11.18Z"/>
      <g class="uuid-067516a1-5ffb-4c22-8c5a-be5968c1e635">
        <path class="uuid-812a4371-e412-481d-961a-957d9dc78827" d="M498.76,838.18c-2.15-2.3-7.66-7.51-9.81-8.28s-8.12-3.98-9.5-3.98c0,0-9.35,4.29-16.09,11.49-6.74,7.2-13.95,18.24-21.91,19.31l10.88,8.28s10.11,4.44,17.78,3.68c7.66-.77,18.7-10.42,18.7-10.42l9.96-20.08Z"/>
        <path class="uuid-812a4371-e412-481d-961a-957d9dc78827" d="M327.85,744.62s-47.85-5.49-68.76,10.9l-5.08-31.81,34.89-9.83h42.08l3.6,6.84"/>
      </g>
    </g>
    <polygon class="uuid-de2cb2a1-3ee5-4fe9-a69a-9f10ddfdd19b" points="747.18 729.36 545.24 729.36 494.03 875.38 694.31 875.38 751.65 732.59 747.18 729.36"/>
    <path class="uuid-da33f9b3-5cc8-4816-b8f9-6de68d7982f5" d="M320.29,791.18c-15.8-6.15-27.57-3.03-27.57-3.03"/>
    <polygon class="uuid-e26786f4-99b1-4684-ad60-b539060d8386" points="747.18 729.36 545.24 729.36 549.93 732.59 751.65 732.59 747.18 729.36"/>
    <line class="uuid-da6e5a55-bebf-4642-9713-a06075b2facf" x1="173.37" y1="886.05" x2="838.48" y2="886.05"/>
  </g>
</svg>